<svg width="109" height="40" viewBox="0 0 109 40" fill="none" xmlns="http://www.w3.org/2000/svg">
<path d="M36.9913 0.307678C28.4123 1.03724 8.97826 6.7874 7.03955 5.2716C8.91463 7.69301 14.9144 9.83617 19.6967 9.83617C19.6967 9.83617 24.6801 4.27538 34.1345 2.54016H34.143C35.5309 2.28294 37.0131 2.11118 38.5927 2.05106C50.614 1.59589 60.9476 8.06702 65.8029 11.4035C71.982 10.2394 88.0345 11.4164 93.2908 13.2242C93.2993 13.2285 93.3121 13.2328 93.3206 13.2328C93.564 13.3186 93.7818 13.4045 93.974 13.49L93.1925 13.4045L93.1669 13.4002C90.8055 13.2371 89.0376 13.894 89.0376 13.894C89.0376 13.894 94.0551 16.8269 99.7218 18.2912C105.388 19.7554 104.334 17.273 102.233 15.1565C102.233 15.1565 105.145 15.1994 107.413 14.7099C107.413 14.7099 95.2081 10.2012 77.4015 9.54375C73.8742 9.41106 70.1287 9.43253 66.2129 9.6687C58.6464 5.17283 53.7565 2.67799 49.9431 1.35543C46.9633 0.32056 44.6394 0.000654221 42.2058 0.000654221C40.5903 0.000654221 38.9266 0.141499 36.9913 0.307678Z" fill="white"/>
<path d="M0.019043 11.3352C3.30332 10.4936 8.00021 11.5757 13.4965 13.0442C13.5003 13.0442 13.5046 13.0485 13.5089 13.0485C24.1205 15.8955 37.6915 20.1938 49.7081 14.8434C44.2208 15.2857 38.1574 14.895 31.8668 13.9803C26.8108 13.2503 21.6096 12.1811 16.4426 10.9311C12.917 10.0805 10.0171 9.78418 7.68805 9.78418C2.51801 9.78418 0.160389 11.2433 0.019043 11.3352Z" fill="white"/>
<path d="M0.0104805 14.111C-0.280326 16.4633 5.53666 17.8636 10.494 14.111C8.86791 13.5549 6.26304 12.949 3.97032 12.9495C2.33565 12.9495 0.858986 13.2573 0.0104805 14.111Z" fill="white"/>
<path d="M72.1813 20.1318C77.213 17.3913 87.2597 16.9851 95.5304 20.8438C91.682 17.4862 86.6794 15.4431 82.0576 15.4431C78.2029 15.4435 74.6128 16.8653 72.1813 20.1318Z" fill="white"/>
<path d="M104.786 16.2006C105.705 18.3009 106.198 21.8087 104.264 30C106.687 26.2195 109.11 21.2066 107.856 15.9134C107.856 15.9134 106.259 16.1568 104.786 16.2006Z" fill="url(#paint0_linear_608_333)"/>
<path d="M36.9911 0.307441C28.4121 1.037 8.97808 6.78716 7.03937 5.27136C8.91445 7.69278 14.9142 9.83594 19.6965 9.83594C19.6965 9.83594 24.6799 4.27514 34.1343 2.53992H34.1429C39.6003 0.887139 43.371 0.0583868 49.9429 1.35519C46.9631 0.320324 44.6392 0.000417709 42.2056 0.000417709C40.5901 0.000417709 38.9264 0.141261 36.9911 0.307441Z" fill="white"/>
<path d="M93.2907 13.2242C93.2992 13.2285 93.312 13.2328 93.3206 13.2328C93.5388 13.3186 93.7561 13.4045 93.9739 13.49L93.1925 13.4045L93.1668 13.4002C90.8054 13.2371 89.0375 13.894 89.0375 13.894C89.0375 13.894 94.0551 16.8269 99.7217 18.2912C105.388 19.7554 104.334 17.273 102.233 15.1565C102.233 15.1565 105.145 15.1994 107.413 14.7099C107.413 14.7099 95.208 10.2012 77.4014 9.54375C77.4014 9.54375 85.1045 10.0938 93.2907 13.2242Z" fill="white"/>
<path d="M49.708 14.8434C44.2207 15.2857 38.1573 14.895 31.8667 13.9803C27.7668 13.8253 25.1257 13.8966 23.1105 13.9687C19.4996 14.0967 17.8965 14.2255 13.5088 13.0485C24.1204 15.8955 37.6914 20.1938 49.708 14.8434Z" fill="white"/>
<path d="M85.5909 39.8869H78.8695C78.7637 39.8869 78.6655 39.8679 78.5748 39.83C78.4841 39.792 78.4048 39.7407 78.3368 39.6761C78.2725 39.6077 78.2215 39.5279 78.1837 39.4367C78.146 39.3456 78.1271 39.2468 78.1271 39.1404V31.7148H79.6006V38.4052H85.5909V39.8869Z" fill="white"/>
<path d="M76.9903 39.8869H75.5168V37.881H70.3369V39.8869H68.8634V35.8009C68.8634 35.2044 68.9654 34.6554 69.1694 34.1539C69.3735 33.6524 69.6568 33.2212 70.0195 32.8603C70.3822 32.4994 70.8111 32.2182 71.306 32.0169C71.8009 31.8155 72.3412 31.7148 72.9268 31.7148H76.2479C76.3499 31.7148 76.4462 31.7338 76.5369 31.7718C76.6276 31.8098 76.7069 31.863 76.7749 31.9314C76.8429 31.9998 76.8958 32.0796 76.9336 32.1707C76.9714 32.2619 76.9903 32.3588 76.9903 32.4614V39.8869ZM70.3369 36.3993H75.5168V33.1965H72.9268C72.8815 33.1965 72.7852 33.2041 72.6378 33.2193C72.4942 33.2307 72.3261 33.263 72.1334 33.3162C71.9445 33.3694 71.7443 33.4511 71.5327 33.5613C71.3211 33.6714 71.1265 33.8234 70.949 34.0172C70.7714 34.2109 70.624 34.4541 70.5069 34.7466C70.3936 35.0354 70.3369 35.3868 70.3369 35.8009V36.3993Z" fill="white"/>
<path d="M68.7919 33.1965H65.5446V39.8869H64.0711V33.1965H60.8181V31.7148H68.7919V33.1965Z" fill="white"/>
<path d="M60.3103 39.2538C60.3103 39.3602 60.2895 39.459 60.2479 39.5502C60.2102 39.6413 60.1573 39.7211 60.0893 39.7895C60.025 39.8541 59.9476 39.9054 59.8569 39.9434C59.7662 39.9814 59.6699 40.0004 59.5679 40.0004C59.4772 40.0004 59.3846 39.9833 59.2902 39.9491C59.1995 39.9149 59.1183 39.8598 59.0465 39.7838L53.6626 34.1306V39.8864H52.1891V32.3469C52.1891 32.1949 52.2306 32.0581 52.3138 31.9366C52.4007 31.8112 52.5102 31.7181 52.6425 31.6573C52.7823 31.6003 52.9258 31.587 53.0732 31.6174C53.2205 31.644 53.3471 31.7124 53.4529 31.8226L58.8368 37.4701V31.7143H60.3103V39.2538Z" fill="white"/>
<path d="M50.6782 36.5474H46.0254V35.0543H50.6782V36.5474ZM51.3413 39.8869H46.0254C45.8214 39.8869 45.5985 39.8508 45.3567 39.7787C45.1149 39.7065 44.8901 39.5887 44.6823 39.4253C44.4782 39.2582 44.3063 39.0435 44.1665 38.7814C44.0305 38.5154 43.9625 38.1906 43.9625 37.8069V32.4614C43.9625 32.3588 43.9814 32.2619 44.0192 32.1707C44.057 32.0796 44.108 31.9998 44.1722 31.9314C44.2402 31.863 44.3196 31.8098 44.4102 31.7718C44.5009 31.7338 44.5991 31.7148 44.7049 31.7148H51.3413V33.1965H45.436V37.8069C45.436 38.0006 45.487 38.1488 45.589 38.2514C45.691 38.354 45.8403 38.4052 46.0367 38.4052H51.3413V39.8869Z" fill="white"/>
<path d="M43.0976 34.4617C43.0976 34.7998 43.0561 35.1018 42.973 35.3678C42.8898 35.6337 42.7765 35.8693 42.6329 36.0744C42.4931 36.2758 42.3307 36.4487 42.1455 36.593C41.9604 36.7374 41.7658 36.8571 41.5618 36.9521C41.3616 37.0432 41.1575 37.1097 40.9497 37.1515C40.7457 37.1933 40.553 37.2142 40.3717 37.2142L43.449 39.8869H41.1708L38.0991 37.2142H37.0393V35.7325H40.3717C40.5568 35.7173 40.7249 35.6793 40.8761 35.6185C41.031 35.5539 41.1632 35.4685 41.2728 35.3621C41.3861 35.2557 41.473 35.1284 41.5335 34.9803C41.5939 34.8283 41.6242 34.6554 41.6242 34.4617V33.5271C41.6242 33.4435 41.6128 33.3808 41.5901 33.339C41.5713 33.2934 41.5448 33.2611 41.5108 33.2421C41.4806 33.2193 41.4466 33.206 41.4088 33.2022C41.3748 33.1984 41.3427 33.1965 41.3125 33.1965H36.4499V39.8869H34.9764V32.4614C34.9764 32.3588 34.9953 32.2619 35.0331 32.1707C35.0709 32.0796 35.1219 31.9998 35.1861 31.9314C35.2541 31.863 35.3335 31.8098 35.4242 31.7718C35.5148 31.7338 35.6131 31.7148 35.7189 31.7148H41.3125C41.6412 31.7148 41.9188 31.7756 42.1455 31.8972C42.3722 32.015 42.5555 32.1651 42.6953 32.3474C42.8388 32.526 42.9409 32.7197 43.0013 32.9287C43.0655 33.1376 43.0976 33.3333 43.0976 33.5157V34.4617Z" fill="white"/>
<path d="M30.9516 34.4617C30.9516 34.7998 30.91 35.1018 30.8269 35.3678C30.7438 35.6337 30.6304 35.8693 30.4869 36.0744C30.3471 36.2758 30.1846 36.4487 29.9995 36.593C29.8144 36.7374 29.6198 36.8571 29.4158 36.9521C29.2155 37.0432 29.0115 37.1097 28.8037 37.1515C28.5997 37.1933 28.407 37.2142 28.2256 37.2142L31.303 39.8869H29.0247L25.9531 37.2142H24.8933V35.7325H28.2256C28.4108 35.7173 28.5789 35.6793 28.73 35.6185C28.8849 35.5539 29.0172 35.4685 29.1267 35.3621C29.2401 35.2557 29.327 35.1284 29.3874 34.9803C29.4479 34.8283 29.4781 34.6554 29.4781 34.4617V33.5271C29.4781 33.4435 29.4668 33.3808 29.4441 33.339C29.4252 33.2934 29.3988 33.2611 29.3648 33.2421C29.3345 33.2193 29.3005 33.206 29.2627 33.2022C29.2287 33.1984 29.1966 33.1965 29.1664 33.1965H24.3039V39.8869H22.8304V32.4614C22.8304 32.3588 22.8493 32.2619 22.8871 32.1707C22.9248 32.0796 22.9758 31.9998 23.0401 31.9314C23.1081 31.863 23.1874 31.8098 23.2781 31.7718C23.3688 31.7338 23.467 31.7148 23.5728 31.7148H29.1664C29.4951 31.7148 29.7728 31.7756 29.9995 31.8972C30.2262 32.015 30.4094 32.1651 30.5492 32.3474C30.6928 32.526 30.7948 32.7197 30.8552 32.9287C30.9195 33.1376 30.9516 33.3333 30.9516 33.5157V34.4617Z" fill="white"/>
<path d="M21.6936 39.8869H20.2201V37.881H15.0402V39.8869H13.5667V35.8009C13.5667 35.2044 13.6687 34.6554 13.8727 34.1539C14.0768 33.6524 14.3601 33.2212 14.7228 32.8603C15.0855 32.4994 15.5144 32.2182 16.0093 32.0169C16.5042 31.8155 17.0445 31.7148 17.6301 31.7148H20.9512C21.0532 31.7148 21.1495 31.7338 21.2402 31.7718C21.3309 31.8098 21.4102 31.863 21.4782 31.9314C21.5462 31.9998 21.5991 32.0796 21.6369 32.1707C21.6747 32.2619 21.6936 32.3588 21.6936 32.4614V39.8869ZM15.0402 36.3993H20.2201V33.1965H17.6301C17.5848 33.1965 17.4885 33.2041 17.3411 33.2193C17.1975 33.2307 17.0294 33.263 16.8367 33.3162C16.6478 33.3694 16.4476 33.4511 16.236 33.5613C16.0244 33.6714 15.8298 33.8234 15.6523 34.0172C15.4747 34.2109 15.3273 34.4541 15.2102 34.7466C15.0969 35.0354 15.0402 35.3868 15.0402 35.8009V36.3993Z" fill="white"/>
<path d="M12.9058 39.8869H7.58986C7.45384 39.8869 7.30649 39.8717 7.14781 39.8414C6.9929 39.8072 6.838 39.7559 6.68309 39.6875C6.53196 39.6191 6.38651 39.5317 6.24671 39.4253C6.10692 39.3152 5.98224 39.1841 5.87267 39.0321C5.76688 38.8764 5.68187 38.6978 5.61764 38.4964C5.55342 38.2913 5.5213 38.0614 5.5213 37.8069V33.7949C5.5213 33.6581 5.53641 33.5119 5.56664 33.3561C5.60064 33.1965 5.65165 33.0408 5.71966 32.8888C5.78766 32.733 5.87645 32.5849 5.98602 32.4443C6.09558 32.3037 6.22593 32.1802 6.37706 32.0739C6.53196 31.9637 6.70954 31.8763 6.90978 31.8117C7.11003 31.7471 7.33672 31.7148 7.58986 31.7148H12.9058V33.1965H7.58986C7.39717 33.1965 7.24982 33.2478 7.14781 33.3504C7.0458 33.453 6.99479 33.6049 6.99479 33.8063V37.8069C6.99479 37.9968 7.0458 38.145 7.14781 38.2514C7.2536 38.354 7.40095 38.4052 7.58986 38.4052H12.9058V39.8869Z" fill="white"/>
<path d="M74.814 28.2864H68.0926C67.9868 28.2864 67.8886 28.2674 67.7979 28.2294C67.7073 28.1914 67.6279 28.1401 67.5599 28.0755C67.4957 28.0071 67.4447 27.9273 67.4069 27.8361C67.3691 27.745 67.3502 27.6462 67.3502 27.5398V20.1143H68.8237V26.8047H74.814V28.2864Z" fill="white"/>
<path d="M65.8394 24.9468H61.1865V23.4538H65.8394V24.9468ZM66.5024 28.2864H61.1865C60.9825 28.2864 60.7596 28.2503 60.5178 28.1781C60.276 28.1059 60.0512 27.9881 59.8434 27.8247C59.6394 27.6576 59.4675 27.4429 59.3277 27.1808C59.1917 26.9148 59.1237 26.59 59.1237 26.2063V20.8608C59.1237 20.7582 59.1425 20.6613 59.1803 20.5702C59.2181 20.479 59.2691 20.3992 59.3333 20.3308C59.4014 20.2624 59.4807 20.2092 59.5714 20.1712C59.662 20.1333 59.7603 20.1143 59.8661 20.1143H66.5024V21.5959H60.5971V26.2063C60.5971 26.4 60.6482 26.5482 60.7502 26.6508C60.8522 26.7534 61.0014 26.8047 61.1979 26.8047H66.5024V28.2864Z" fill="white"/>
<path d="M58.9048 20.1143L55.0567 27.9957C54.9963 28.1173 54.9056 28.2142 54.7847 28.2864C54.6676 28.3623 54.5372 28.4003 54.3937 28.4003C54.2539 28.4003 54.1235 28.3623 54.0026 28.2864C53.8855 28.2142 53.7948 28.1173 53.7306 27.9957L49.8882 20.1143H51.5374L54.3937 26.0011L57.2613 20.1143H58.9048Z" fill="white"/>
<path d="M49.2614 24.9468H44.6085V23.4538H49.2614V24.9468ZM49.9244 28.2864H44.6085C44.4045 28.2864 44.1816 28.2503 43.9398 28.1781C43.698 28.1059 43.4732 27.9881 43.2654 27.8247C43.0614 27.6576 42.8895 27.4429 42.7497 27.1808C42.6137 26.9148 42.5457 26.59 42.5457 26.2063V20.8608C42.5457 20.7582 42.5645 20.6613 42.6023 20.5702C42.6401 20.479 42.6911 20.3992 42.7553 20.3308C42.8233 20.2624 42.9027 20.2092 42.9934 20.1712C43.084 20.1333 43.1823 20.1143 43.2881 20.1143H49.9244V21.5959H44.0191V26.2063C44.0191 26.4 44.0702 26.5482 44.1722 26.6508C44.2742 26.7534 44.4234 26.8047 44.6199 26.8047H49.9244V28.2864Z" fill="white"/>
<path d="M42.1115 28.2864H35.3901C35.2843 28.2864 35.1861 28.2674 35.0954 28.2294C35.0047 28.1914 34.9254 28.1401 34.8574 28.0755C34.7932 28.0071 34.7422 27.9273 34.7044 27.8361C34.6666 27.745 34.6477 27.6462 34.6477 27.5398V20.1143H36.1212V26.8047H42.1115V28.2864Z" fill="white"/>
<path d="M30.8723 23.5335C30.8723 23.8717 30.8307 24.1737 30.7476 24.4397C30.6645 24.7056 30.5512 24.9412 30.4076 25.1463C30.2678 25.3477 30.1053 25.5205 29.9202 25.6649C29.7351 25.8093 29.5405 25.927 29.3365 26.0182C29.1362 26.1094 28.9322 26.1759 28.7244 26.2177C28.5204 26.2595 28.3277 26.2804 28.1463 26.2804H24.814V24.7987H28.1463C28.3353 24.7835 28.5053 24.7455 28.6564 24.6847C28.8113 24.6201 28.9435 24.5346 29.0531 24.4283C29.1627 24.3219 29.2477 24.1946 29.3081 24.0464C29.3686 23.8945 29.3988 23.7235 29.3988 23.5335V22.8611C29.3799 22.6749 29.3403 22.504 29.2798 22.3482C29.2193 22.1924 29.1362 22.0595 29.0304 21.9493C28.9284 21.8391 28.8037 21.7536 28.6564 21.6928C28.509 21.6282 28.339 21.5959 28.1463 21.5959H24.8253C24.6289 21.5959 24.4796 21.6472 24.3776 21.7498C24.2756 21.8524 24.2246 22.0006 24.2246 22.1943V28.2864H22.7511V22.1943C22.7511 21.8144 22.8191 21.4915 22.9551 21.2255C23.0949 20.9596 23.2668 20.7449 23.4708 20.5816C23.6786 20.4182 23.9034 20.3004 24.1452 20.2282C24.3871 20.1522 24.61 20.1143 24.814 20.1143H28.1463C28.4788 20.1143 28.7773 20.1579 29.0418 20.2453C29.3062 20.3289 29.5386 20.4429 29.7388 20.5873C29.9429 20.7278 30.1148 20.8912 30.2546 21.0774C30.3981 21.2635 30.5153 21.4592 30.6059 21.6643C30.7004 21.8657 30.7684 22.0709 30.81 22.2798C30.8515 22.485 30.8723 22.6787 30.8723 22.8611V23.5335Z" fill="white"/>
<path d="M21.8976 24.9808C21.8976 25.4785 21.8125 25.9363 21.6425 26.3542C21.4725 26.7721 21.2364 27.133 20.9341 27.4369C20.6319 27.7409 20.2729 27.9783 19.8573 28.1493C19.4455 28.3165 18.9959 28.4 18.5085 28.4H16.5136C16.0263 28.4 15.5748 28.3165 15.1592 28.1493C14.7436 27.9783 14.3846 27.7409 14.0824 27.4369C13.7801 27.133 13.5421 26.7721 13.3683 26.3542C13.1983 25.9363 13.1133 25.4785 13.1133 24.9808V23.4193C13.1133 22.9254 13.1983 22.4695 13.3683 22.0516C13.5421 21.6299 13.7801 21.2689 14.0824 20.9688C14.3846 20.6649 14.7436 20.4274 15.1592 20.2564C15.5748 20.0855 16.0263 20 16.5136 20H18.5085C18.9959 20 19.4455 20.0855 19.8573 20.2564C20.2729 20.4274 20.6319 20.6649 20.9341 20.9688C21.2364 21.2689 21.4725 21.6299 21.6425 22.0516C21.8125 22.4695 21.8976 22.9254 21.8976 23.4193V24.9808ZM20.4241 23.4193C20.4241 23.1267 20.3768 22.8627 20.2824 22.6272C20.1917 22.3878 20.0614 22.1845 19.8913 22.0174C19.7251 21.8464 19.523 21.7153 19.2849 21.6242C19.0507 21.5292 18.7919 21.4817 18.5085 21.4817H16.5136C16.2265 21.4817 15.9639 21.5292 15.7259 21.6242C15.4916 21.7153 15.2895 21.8464 15.1195 22.0174C14.9495 22.1845 14.8172 22.3878 14.7228 22.6272C14.6321 22.8627 14.5868 23.1267 14.5868 23.4193V24.9808C14.5868 25.2733 14.6321 25.5392 14.7228 25.7786C14.8172 26.0141 14.9495 26.2174 15.1195 26.3884C15.2895 26.5555 15.4916 26.6866 15.7259 26.7816C15.9639 26.8728 16.2265 26.9184 16.5136 26.9184H18.4972C18.7843 26.9184 19.045 26.8728 19.2793 26.7816C19.5173 26.6866 19.7213 26.5555 19.8913 26.3884C20.0614 26.2174 20.1917 26.0141 20.2824 25.7786C20.3768 25.5392 20.4241 25.2733 20.4241 24.9808V23.4193Z" fill="white"/>
<path d="M12.9739 21.5959H9.72651V28.2864H8.25302V21.5959H5V20.1143H12.9739V21.5959Z" fill="white"/>
<defs>
<linearGradient id="paint0_linear_608_333" x1="108" y1="16" x2="106" y2="28" gradientUnits="userSpaceOnUse">
<stop stop-color="white"/>
<stop offset="1" stop-color="white" stop-opacity="0"/>
</linearGradient>
</defs>
</svg>
