<svg width="186" height="67" viewBox="0 0 186 67" fill="none" xmlns="http://www.w3.org/2000/svg">
<path d="M63.1228 0.515188C48.4834 1.7372 15.3207 11.3687 12.0125 8.82975C15.2121 12.8856 25.4502 16.4754 33.6108 16.4754C33.6108 16.4754 42.1147 7.16109 58.2479 4.25459H58.2625C60.6307 3.82376 63.16 3.53605 65.8554 3.43535C86.3688 2.67295 104.002 13.5121 112.288 19.1007C122.832 17.1508 150.224 19.1223 159.193 22.1503C159.208 22.1575 159.23 22.1647 159.244 22.1647C159.66 22.3086 160.031 22.4524 160.359 22.5955L159.026 22.4524L158.982 22.4452C154.952 22.1719 151.936 23.2724 151.936 23.2724C151.936 23.2724 160.498 28.1849 170.167 30.6375C179.837 33.0902 178.038 28.9322 174.453 25.387C174.453 25.387 179.422 25.4589 183.292 24.6389C183.292 24.6389 162.465 17.0868 132.08 15.9856C126.061 15.7634 119.669 15.7993 112.987 16.1949C100.075 8.66432 91.7312 4.48547 85.224 2.27017C80.1392 0.536768 76.1737 0.000925064 72.0209 0.000925064C69.2642 0.000925064 66.4252 0.236837 63.1228 0.515188Z" fill="white"/>
<path d="M0.0324707 18.9864C5.63683 17.5766 13.6517 19.3892 23.0307 21.849C23.0372 21.849 23.0445 21.8562 23.0518 21.8562C41.1598 26.6248 64.3176 33.8246 84.8229 24.8627C75.4593 25.6035 65.1126 24.949 54.3782 23.417C45.7505 22.1943 36.8751 20.4033 28.0579 18.3096C22.0418 16.8847 17.0933 16.3884 13.119 16.3884C4.29677 16.3884 0.273667 18.8325 0.0324707 18.9864Z" fill="white"/>
<path d="M0.0178841 23.6357C-0.478354 27.5758 9.44787 29.9213 17.9072 23.6357C15.1324 22.7043 10.6874 21.6894 6.77504 21.6902C3.98561 21.6902 1.46579 22.2059 0.0178841 23.6357Z" fill="white"/>
<path d="M123.172 33.7215C131.758 29.1313 148.902 28.4509 163.015 34.9141C156.448 29.2902 147.912 25.868 140.025 25.868C133.447 25.8687 127.321 28.2502 123.172 33.7215Z" fill="white"/>
<path d="M178.809 27.1361C180.377 30.6539 181.219 36.5295 177.918 50.25C182.053 43.9177 186.187 35.5211 184.048 26.6549C184.048 26.6549 181.322 27.0627 178.809 27.1361Z" fill="url(#paint0_linear_608_134)"/>
<path d="M63.1225 0.514379C48.4831 1.73639 15.3203 11.3679 12.0121 8.82894C15.2118 12.8848 25.4499 16.4746 33.6105 16.4746C33.6105 16.4746 42.1143 7.16028 58.2475 4.25378H58.2621C67.5748 1.48537 74.0091 0.0972137 85.2237 2.26936C80.1389 0.535957 76.1733 0.000114441 72.0205 0.000114441C69.2639 0.000114441 66.4249 0.236027 63.1225 0.514379Z" fill="white"/>
<path d="M159.193 22.1503C159.208 22.1575 159.23 22.1647 159.244 22.1647C159.617 22.3086 159.988 22.4524 160.359 22.5955L159.026 22.4524L158.982 22.4452C154.952 22.1719 151.936 23.2723 151.936 23.2723C151.936 23.2723 160.498 28.1849 170.167 30.6375C179.837 33.0902 178.038 28.9322 174.453 25.387C174.453 25.387 179.422 25.4589 183.292 24.6389C183.292 24.6389 162.465 17.0868 132.079 15.9856C132.079 15.9856 145.224 16.907 159.193 22.1503Z" fill="white"/>
<path d="M84.8228 24.8627C75.4591 25.6035 65.1125 24.949 54.3781 23.417C47.382 23.1573 42.875 23.2767 39.4363 23.3976C33.2745 23.6119 30.539 23.8277 23.0517 21.8562C41.1597 26.6248 64.3175 33.8246 84.8228 24.8627Z" fill="white"/>
<path d="M146.054 66.8113H134.585C134.404 66.8113 134.236 66.7795 134.082 66.7159C133.927 66.6522 133.792 66.5663 133.676 66.4581C133.566 66.3436 133.479 66.2099 133.414 66.0572C133.35 65.9045 133.318 65.739 133.318 65.5608V53.123H135.832V64.3295H146.054V66.8113Z" fill="white"/>
<path d="M131.378 66.8113H128.863V63.4513H120.024V66.8113H117.51V59.9672C117.51 58.9681 117.684 58.0485 118.032 57.2085C118.38 56.3685 118.864 55.6462 119.483 55.0417C120.102 54.4371 120.834 53.9662 121.678 53.629C122.523 53.2917 123.445 53.123 124.444 53.123H130.111C130.285 53.123 130.449 53.1549 130.604 53.2185C130.759 53.2821 130.894 53.3712 131.01 53.4858C131.126 53.6003 131.217 53.734 131.281 53.8867C131.346 54.0394 131.378 54.2017 131.378 54.3735V66.8113ZM120.024 60.9695H128.863V55.6049H124.444C124.367 55.6049 124.202 55.6176 123.951 55.6431C123.706 55.6622 123.419 55.7162 123.09 55.8053C122.768 55.8944 122.426 56.0312 122.065 56.2158C121.704 56.4003 121.372 56.6549 121.069 56.9794C120.766 57.304 120.514 57.7113 120.315 58.2013C120.121 58.6849 120.024 59.2735 120.024 59.9672V60.9695Z" fill="white"/>
<path d="M117.388 55.6049H111.847V66.8113H109.332V55.6049H103.781V53.123H117.388V55.6049Z" fill="white"/>
<path d="M102.915 65.7492C102.915 65.9274 102.879 66.0928 102.808 66.2456C102.744 66.3983 102.654 66.5319 102.538 66.6465C102.428 66.7546 102.296 66.8406 102.141 66.9042C101.986 66.9678 101.822 66.9997 101.648 66.9997C101.493 66.9997 101.335 66.971 101.174 66.9137C101.019 66.8565 100.881 66.7642 100.758 66.6369L91.571 57.1678V66.8087H89.0566V54.18C89.0566 53.9255 89.1275 53.6964 89.2693 53.4928C89.4176 53.2827 89.6046 53.1268 89.8302 53.025C90.0688 52.9296 90.3138 52.9073 90.5652 52.9582C90.8167 53.0027 91.0326 53.1173 91.2132 53.3018L100.4 62.7614V53.1205H102.915V65.7492Z" fill="white"/>
<path d="M86.4784 61.2176H78.5387V58.7167H86.4784V61.2176ZM87.6099 66.8113H78.5387C78.1906 66.8113 77.8102 66.7509 77.3976 66.6299C76.9849 66.509 76.6013 66.3118 76.2467 66.0381C75.8986 65.7581 75.6052 65.3986 75.3667 64.9595C75.1346 64.514 75.0186 63.9699 75.0186 63.3272V54.3735C75.0186 54.2017 75.0508 54.0394 75.1153 53.8867C75.1797 53.734 75.2668 53.6003 75.3764 53.4858C75.4924 53.3712 75.6278 53.2821 75.7825 53.2185C75.9373 53.1549 76.1049 53.123 76.2854 53.123H87.6099V55.6049H77.533V63.3272C77.533 63.6517 77.62 63.8999 77.7941 64.0717C77.9681 64.2436 78.2228 64.3295 78.5581 64.3295H87.6099V66.8113Z" fill="white"/>
<path d="M73.5428 57.724C73.5428 58.2904 73.4718 58.7963 73.33 59.2417C73.1882 59.6872 72.9948 60.0817 72.7498 60.4254C72.5112 60.7626 72.234 61.0522 71.9181 61.294C71.6022 61.5358 71.2701 61.7363 70.922 61.8954C70.5803 62.0481 70.2321 62.1595 69.8776 62.2295C69.5294 62.2995 69.2006 62.3345 68.8911 62.3345L74.1424 66.8113H70.2547L65.0132 62.3345H63.2047V59.8526H68.8911C69.207 59.8272 69.4939 59.7635 69.7518 59.6617C70.0162 59.5535 70.2418 59.4104 70.4288 59.2322C70.6222 59.054 70.7705 58.8408 70.8736 58.5926C70.9768 58.3381 71.0284 58.0485 71.0284 57.724V56.1585C71.0284 56.0185 71.009 55.9135 70.9703 55.8435C70.9381 55.7672 70.893 55.7131 70.835 55.6812C70.7834 55.6431 70.7253 55.6208 70.6609 55.6144C70.6029 55.6081 70.5481 55.6049 70.4965 55.6049H62.199V66.8113H59.6846V54.3735C59.6846 54.2017 59.7168 54.0394 59.7813 53.8867C59.8458 53.734 59.9328 53.6003 60.0424 53.4858C60.1584 53.3712 60.2938 53.2821 60.4486 53.2185C60.6033 53.1549 60.7709 53.123 60.9514 53.123H70.4965C71.0574 53.123 71.5312 53.2249 71.9181 53.4285C72.3049 53.6258 72.6176 53.8771 72.8561 54.1826C73.1011 54.4817 73.2752 54.8062 73.3784 55.1562C73.488 55.5062 73.5428 55.834 73.5428 56.1394V57.724Z" fill="white"/>
<path d="M52.8165 57.724C52.8165 58.2904 52.7456 58.7963 52.6038 59.2417C52.4619 59.6872 52.2685 60.0817 52.0235 60.4254C51.785 60.7626 51.5077 61.0522 51.1918 61.294C50.8759 61.5358 50.5439 61.7363 50.1957 61.8954C49.854 62.0481 49.5059 62.1595 49.1513 62.2295C48.8031 62.2995 48.4743 62.3345 48.1649 62.3345L53.4161 66.8113H49.5285L44.2869 62.3345H42.4785V59.8526H48.1649C48.4808 59.8272 48.7677 59.7635 49.0256 59.6617C49.2899 59.5535 49.5156 59.4104 49.7025 59.2322C49.8959 59.054 50.0442 58.8408 50.1474 58.5926C50.2505 58.3381 50.3021 58.0485 50.3021 57.724V56.1585C50.3021 56.0185 50.2828 55.9135 50.2441 55.8435C50.2119 55.7672 50.1667 55.7131 50.1087 55.6812C50.0571 55.6431 49.9991 55.6208 49.9346 55.6144C49.8766 55.6081 49.8218 55.6049 49.7702 55.6049H41.4727V66.8113H38.9583V54.3735C38.9583 54.2017 38.9905 54.0394 39.055 53.8867C39.1195 53.734 39.2065 53.6003 39.3161 53.4858C39.4322 53.3712 39.5676 53.2821 39.7223 53.2185C39.877 53.1549 40.0447 53.123 40.2252 53.123H49.7702C50.3311 53.123 50.805 53.2249 51.1918 53.4285C51.5787 53.6258 51.8913 53.8771 52.1299 54.1826C52.3749 54.4817 52.549 54.8062 52.6521 55.1562C52.7617 55.5062 52.8165 55.834 52.8165 56.1394V57.724Z" fill="white"/>
<path d="M37.0184 66.8113H34.504V63.4513H25.665V66.8113H23.1506V59.9672C23.1506 58.9681 23.3246 58.0485 23.6728 57.2085C24.0209 56.3685 24.5045 55.6462 25.1234 55.0417C25.7423 54.4371 26.4741 53.9662 27.3187 53.629C28.1632 53.2917 29.0852 53.123 30.0845 53.123H35.7516C35.9256 53.123 36.09 53.1549 36.2448 53.2185C36.3995 53.2821 36.5349 53.3712 36.651 53.4858C36.767 53.6003 36.8573 53.734 36.9217 53.8867C36.9862 54.0394 37.0184 54.2017 37.0184 54.3735V66.8113ZM25.665 60.9695H34.504V55.6049H30.0845C30.0071 55.6049 29.8427 55.6176 29.5913 55.6431C29.3463 55.6622 29.0594 55.7162 28.7306 55.8053C28.4082 55.8944 28.0665 56.0312 27.7055 56.2158C27.3445 56.4003 27.0124 56.6549 26.7094 56.9794C26.4064 57.304 26.155 57.7113 25.9551 58.2013C25.7617 58.6849 25.665 59.2735 25.665 59.9672V60.9695Z" fill="white"/>
<path d="M22.0227 66.8113H12.9515C12.7194 66.8113 12.468 66.7859 12.1972 66.7349C11.9329 66.6777 11.6685 66.5918 11.4042 66.4772C11.1463 66.3627 10.8981 66.2163 10.6595 66.0381C10.421 65.8536 10.2082 65.634 10.0213 65.3795C9.84076 65.1186 9.6957 64.8195 9.58609 64.4822C9.47649 64.1386 9.42169 63.7536 9.42169 63.3272V56.6072C9.42169 56.3781 9.44748 56.1331 9.49906 55.8722C9.55708 55.6049 9.64412 55.344 9.76017 55.0894C9.87622 54.8285 10.0277 54.5803 10.2147 54.3449C10.4017 54.1094 10.6241 53.9026 10.882 53.7244C11.1463 53.5399 11.4493 53.3935 11.791 53.2853C12.1327 53.1771 12.5196 53.123 12.9515 53.123H22.0227V55.6049H12.9515C12.6227 55.6049 12.3713 55.6908 12.1972 55.8626C12.0231 56.0344 11.9361 56.289 11.9361 56.6262V63.3272C11.9361 63.6454 12.0231 63.8936 12.1972 64.0717C12.3777 64.2436 12.6292 64.3295 12.9515 64.3295H22.0227V66.8113Z" fill="white"/>
<path d="M127.664 47.3797H116.195C116.014 47.3797 115.847 47.3478 115.692 47.2842C115.537 47.2206 115.402 47.1347 115.286 47.0265C115.176 46.9119 115.089 46.7783 115.025 46.6256C114.96 46.4728 114.928 46.3074 114.928 46.1292V33.6914H117.442V44.8978H127.664V47.3797Z" fill="white"/>
<path d="M112.35 41.786H104.41V39.2851H112.35V41.786ZM113.481 47.3797H104.41C104.062 47.3797 103.682 47.3192 103.269 47.1983C102.856 47.0774 102.473 46.8801 102.118 46.6065C101.77 46.3265 101.477 45.9669 101.238 45.5278C101.006 45.0824 100.89 44.5383 100.89 43.8956V34.9419C100.89 34.77 100.922 34.6078 100.987 34.455C101.051 34.3023 101.138 34.1687 101.248 34.0541C101.364 33.9396 101.499 33.8505 101.654 33.7869C101.809 33.7232 101.976 33.6914 102.157 33.6914H113.481V36.1732H103.404V43.8956C103.404 44.2201 103.491 44.4683 103.665 44.6401C103.839 44.8119 104.094 44.8978 104.429 44.8978H113.481V47.3797Z" fill="white"/>
<path d="M100.516 33.6914L93.95 46.8928C93.8469 47.0965 93.6922 47.2588 93.4858 47.3797C93.286 47.5069 93.0636 47.5706 92.8186 47.5706C92.58 47.5706 92.3576 47.5069 92.1513 47.3797C91.9514 47.2588 91.7967 47.0965 91.6871 46.8928L85.1303 33.6914H87.9445L92.8186 43.5519L97.712 33.6914H100.516Z" fill="white"/>
<path d="M84.0606 41.786H76.1209V39.2851H84.0606V41.786ZM85.1921 47.3797H76.1209C75.7728 47.3797 75.3924 47.3192 74.9798 47.1983C74.5672 47.0774 74.1835 46.8801 73.829 46.6065C73.4808 46.3265 73.1875 45.9669 72.9489 45.5278C72.7168 45.0824 72.6008 44.5383 72.6008 43.8956V34.9419C72.6008 34.77 72.633 34.6078 72.6975 34.455C72.7619 34.3023 72.849 34.1687 72.9586 34.0541C73.0746 33.9396 73.21 33.8505 73.3648 33.7869C73.5195 33.7232 73.6871 33.6914 73.8676 33.6914H85.1921V36.1732H75.1152V43.8956C75.1152 44.2201 75.2022 44.4683 75.3763 44.6401C75.5504 44.8119 75.805 44.8978 76.1403 44.8978H85.1921V47.3797Z" fill="white"/>
<path d="M71.86 47.3797H60.3905C60.2099 47.3797 60.0423 47.3478 59.8876 47.2842C59.7329 47.2206 59.5975 47.1347 59.4814 47.0265C59.3718 46.9119 59.2848 46.7783 59.2203 46.6256C59.1558 46.4728 59.1236 46.3074 59.1236 46.1292V33.6914H61.638V44.8978H71.86V47.3797Z" fill="white"/>
<path d="M52.6812 39.4187C52.6812 39.9851 52.6103 40.491 52.4684 40.9364C52.3266 41.3819 52.1332 41.7765 51.8882 42.1201C51.6496 42.4574 51.3724 42.7469 51.0565 42.9887C50.7406 43.2306 50.4086 43.4278 50.0604 43.5806C49.7187 43.7333 49.3706 43.8446 49.016 43.9146C48.6678 43.9846 48.339 44.0196 48.0296 44.0196H42.3432V41.5378H48.0296C48.3519 41.5124 48.642 41.4487 48.8999 41.3469C49.1643 41.2387 49.3899 41.0955 49.5769 40.9174C49.7638 40.7392 49.9089 40.526 50.0121 40.2778C50.1152 40.0233 50.1668 39.7369 50.1668 39.4187V38.2923C50.1346 37.9805 50.0669 37.6942 49.9637 37.4332C49.8606 37.1723 49.7187 36.9496 49.5382 36.7651C49.3641 36.5805 49.1514 36.4373 48.8999 36.3355C48.6485 36.2273 48.3584 36.1732 48.0296 36.1732H42.3625C42.0272 36.1732 41.7726 36.2591 41.5985 36.431C41.4244 36.6028 41.3374 36.851 41.3374 37.1755V47.3797H38.823V37.1755C38.823 36.5391 38.939 35.9982 39.1711 35.5528C39.4097 35.1073 39.703 34.7478 40.0512 34.4741C40.4058 34.2005 40.7894 34.0032 41.202 33.8823C41.6146 33.755 41.995 33.6914 42.3432 33.6914H48.0296C48.5969 33.6914 49.1062 33.7646 49.5575 33.911C50.0088 34.051 50.4053 34.2419 50.747 34.4837C51.0952 34.7191 51.3885 34.9928 51.6271 35.3046C51.8721 35.6164 52.0719 35.9441 52.2267 36.2878C52.3878 36.6251 52.5039 36.9687 52.5748 37.3187C52.6457 37.6623 52.6812 37.9869 52.6812 38.2923V39.4187Z" fill="white"/>
<path d="M37.3664 41.8428C37.3664 42.6764 37.2214 43.4432 36.9313 44.1432C36.6411 44.8432 36.2382 45.4478 35.7224 45.9569C35.2066 46.466 34.5942 46.8637 33.885 47.1501C33.1822 47.4301 32.415 47.5701 31.5833 47.5701H28.1792C27.3475 47.5701 26.5771 47.4301 25.8679 47.1501C25.1587 46.8637 24.5462 46.466 24.0305 45.9569C23.5147 45.4478 23.1085 44.8432 22.812 44.1432C22.5218 43.4432 22.3768 42.6764 22.3768 41.8428V39.2273C22.3768 38.4 22.5218 37.6364 22.812 36.9364C23.1085 36.23 23.5147 35.6255 24.0305 35.1227C24.5462 34.6136 25.1587 34.2159 25.8679 33.9295C26.5771 33.6432 27.3475 33.5 28.1792 33.5H31.5833C32.415 33.5 33.1822 33.6432 33.885 33.9295C34.5942 34.2159 35.2066 34.6136 35.7224 35.1227C36.2382 35.6255 36.6411 36.23 36.9313 36.9364C37.2214 37.6364 37.3664 38.4 37.3664 39.2273V41.8428ZM34.8521 39.2273C34.8521 38.7373 34.7715 38.295 34.6103 37.9005C34.4556 37.4996 34.2331 37.1591 33.943 36.8791C33.6593 36.5927 33.3144 36.3732 32.9082 36.2205C32.5085 36.0614 32.0669 35.9818 31.5833 35.9818H28.1792C27.6892 35.9818 27.2412 36.0614 26.835 36.2205C26.4353 36.3732 26.0903 36.5927 25.8002 36.8791C25.5101 37.1591 25.2844 37.4996 25.1233 37.9005C24.9685 38.295 24.8912 38.7373 24.8912 39.2273V41.8428C24.8912 42.3328 24.9685 42.7782 25.1233 43.1791C25.2844 43.5737 25.5101 43.9142 25.8002 44.2005C26.0903 44.4805 26.4353 44.7001 26.835 44.8592C27.2412 45.0119 27.6892 45.0882 28.1792 45.0882H31.564C32.054 45.0882 32.4988 45.0119 32.8986 44.8592C33.3047 44.7001 33.6529 44.4805 33.943 44.2005C34.2331 43.9142 34.4556 43.5737 34.6103 43.1791C34.7715 42.7782 34.8521 42.3328 34.8521 41.8428V39.2273Z" fill="white"/>
<path d="M22.1389 36.1732H16.5975V47.3797H14.0831V36.1732H8.5321V33.6914H22.1389V36.1732Z" fill="white"/>
<defs>
<linearGradient id="paint0_linear_608_134" x1="184.293" y1="26.8" x2="181.002" y2="46.9198" gradientUnits="userSpaceOnUse">
<stop stop-color="white"/>
<stop offset="1" stop-color="white" stop-opacity="0"/>
</linearGradient>
</defs>
</svg>
