<svg width="50" height="50" viewBox="0 0 50 50" fill="none" xmlns="http://www.w3.org/2000/svg">
<rect width="50" height="50" rx="25" fill="#1A187D"/>
<rect x="10" y="10" width="30" height="30" rx="15" fill="#1A187D"/>
<path d="M30.9451 19.0469C29.4634 17.5703 27.4878 16.75 25.4024 16.75C21.0671 16.75 17.5549 20.25 17.5549 24.5703C17.5549 25.9375 17.939 27.3047 18.5976 28.4531L17.5 32.5L21.6707 31.4062C22.8232 32.0078 24.0854 32.3359 25.4024 32.3359C29.7378 32.3359 33.25 28.8359 33.25 24.5156C33.1951 22.4922 32.4268 20.5234 30.9451 19.0469ZM29.189 27.3594C29.0244 27.7969 28.2561 28.2344 27.872 28.2891C27.5427 28.3437 27.1037 28.3438 26.6646 28.2344C26.3902 28.125 26.0061 28.0156 25.5671 27.7969C23.5915 26.9766 22.3293 25.0078 22.2195 24.8438C22.1098 24.7344 21.3963 23.8047 21.3963 22.8203C21.3963 21.8359 21.8902 21.3984 22.0549 21.1797C22.2195 20.9609 22.439 20.9609 22.6037 20.9609C22.7134 20.9609 22.878 20.9609 22.9878 20.9609C23.0976 20.9609 23.2622 20.9062 23.4268 21.2891C23.5915 21.6719 23.9756 22.6562 24.0305 22.7109C24.0854 22.8203 24.0854 22.9297 24.0305 23.0391C23.9756 23.1484 23.9207 23.2578 23.811 23.3672C23.7012 23.4766 23.5915 23.6406 23.5366 23.6953C23.4268 23.8047 23.3171 23.9141 23.4268 24.0781C23.5366 24.2969 23.9207 24.8984 24.5244 25.4453C25.2927 26.1016 25.8963 26.3203 26.1159 26.4297C26.3354 26.5391 26.4451 26.4844 26.5549 26.375C26.6646 26.2656 27.0488 25.8281 27.1585 25.6094C27.2683 25.3906 27.4329 25.4453 27.5976 25.5C27.7622 25.5547 28.75 26.0469 28.9146 26.1562C29.1341 26.2656 29.2439 26.3203 29.2988 26.375C29.3537 26.5391 29.3537 26.9219 29.189 27.3594Z" fill="white"/>
</svg>
